<svg width="32" height="32" viewBox="0 0 32 32" fill="none" xmlns="http://www.w3.org/2000/svg">
  <rect width="32" height="32" rx="8" fill="#E35336"/>
  <path d="M22.7 7.8C22 7.1 21 6.6 19.9 6.2C18.7 5.8 17.5 5.5 16.1 5.5C14.8 5.5 13.5 5.8 12.3 6.2C11.2 6.7 10.2 7.3 9.4 8.1C8.6 8.9 7.9 9.9 7.5 11C7 12.1 6.8 13.3 6.8 14.6C6.8 15.9 7 17.1 7.5 18.2C7.9 19.3 8.6 20.3 9.4 21.1C10.2 21.9 11.2 22.5 12.3 22.9C13.5 23.3 14.7 23.5 16.1 23.5C17 23.5 17.8 23.4 18.6 23.1C19.3 22.9 20 22.5 20.5 22.1C21 21.7 22.4 20.7 23.3 20C23.6 19.8 23.6 19.3 23.3 19.1C20.3 17 17.3 14.9 14.4 12.8C15 11.5 15.8 10.4 16.7 9.5C17.6 8.7 18.7 8.1 19.8 7.7C20.5 7.4 21.3 7.2 22 7.1C22.3 7.1 22.5 7.5 22.7 7.8Z" fill="white" fill-opacity="0.95"/>
  <path d="M7.5 14.6C7.5 12.5 8.1 10.6 9.2 9C8.3 9.8 7.5 10.8 7 12C6.5 13.3 6.2 14.7 6.2 16.1C6.2 17.5 6.5 18.9 7 20.1C7.5 21.3 8.3 22.3 9.2 23.2C10.1 24 11.2 24.7 12.4 25.1C13.6 25.5 14.9 25.8 16.2 25.8C17.5 25.8 18.8 25.5 20 25.1C20.4 24.9 20.8 24.7 21.2 24.5C17.5 22 10.8 17.2 7.5 14.6Z" fill="white" fill-opacity="0.55"/>
</svg>
